<mxfile host="app.diagrams.net" modified="2023-02-15T00:21:06.995Z" agent="5.0 (Windows NT 10.0; Win64; x64) AppleWebKit/537.36 (KHTML, like Gecko) Chrome/109.0.0.0 Safari/537.36 OPR/95.0.0.0" etag="5X_VVYRGecvZk79gB20q" version="20.8.20" type="github">
  <diagram id="R2lEEEUBdFMjLlhIrx00" name="Page-1">
    <mxGraphModel dx="840" dy="446" grid="1" gridSize="10" guides="1" tooltips="1" connect="1" arrows="1" fold="1" page="1" pageScale="1" pageWidth="850" pageHeight="1100" math="0" shadow="0" extFonts="Permanent Marker^https://fonts.googleapis.com/css?family=Permanent+Marker">
      <root>
        <mxCell id="0" />
        <mxCell id="1" parent="0" />
        <mxCell id="b1Wx8SmgDYY8dKGS5oWz-1" value="Clientes" style="whiteSpace=wrap;html=1;align=center;" vertex="1" parent="1">
          <mxGeometry x="90" y="160" width="100" height="40" as="geometry" />
        </mxCell>
        <mxCell id="b1Wx8SmgDYY8dKGS5oWz-2" value="Produto" style="whiteSpace=wrap;html=1;align=center;" vertex="1" parent="1">
          <mxGeometry x="365" y="160" width="100" height="40" as="geometry" />
        </mxCell>
        <mxCell id="b1Wx8SmgDYY8dKGS5oWz-3" value="Compras" style="whiteSpace=wrap;html=1;align=center;" vertex="1" parent="1">
          <mxGeometry x="300" y="280" width="100" height="40" as="geometry" />
        </mxCell>
        <mxCell id="b1Wx8SmgDYY8dKGS5oWz-20" value="" style="ellipse;whiteSpace=wrap;html=1;aspect=fixed;" vertex="1" parent="1">
          <mxGeometry x="490" y="120" width="20" height="20" as="geometry" />
        </mxCell>
        <mxCell id="b1Wx8SmgDYY8dKGS5oWz-21" value="" style="endArrow=none;html=1;rounded=0;exitX=1;exitY=0;exitDx=0;exitDy=0;entryX=0;entryY=1;entryDx=0;entryDy=0;" edge="1" parent="1" source="b1Wx8SmgDYY8dKGS5oWz-2" target="b1Wx8SmgDYY8dKGS5oWz-20">
          <mxGeometry relative="1" as="geometry">
            <mxPoint x="340" y="180" as="sourcePoint" />
            <mxPoint x="500" y="180" as="targetPoint" />
          </mxGeometry>
        </mxCell>
        <mxCell id="b1Wx8SmgDYY8dKGS5oWz-22" value="" style="endArrow=none;html=1;rounded=0;exitX=1;exitY=0.5;exitDx=0;exitDy=0;entryX=0;entryY=0.5;entryDx=0;entryDy=0;" edge="1" parent="1" source="b1Wx8SmgDYY8dKGS5oWz-2" target="b1Wx8SmgDYY8dKGS5oWz-25">
          <mxGeometry relative="1" as="geometry">
            <mxPoint x="475" y="170" as="sourcePoint" />
            <mxPoint x="510" y="150" as="targetPoint" />
          </mxGeometry>
        </mxCell>
        <mxCell id="b1Wx8SmgDYY8dKGS5oWz-23" value="" style="endArrow=none;html=1;rounded=0;exitX=1;exitY=0.75;exitDx=0;exitDy=0;entryX=0;entryY=0.5;entryDx=0;entryDy=0;" edge="1" parent="1" source="b1Wx8SmgDYY8dKGS5oWz-2" target="b1Wx8SmgDYY8dKGS5oWz-26">
          <mxGeometry relative="1" as="geometry">
            <mxPoint x="475" y="190" as="sourcePoint" />
            <mxPoint x="520" y="180" as="targetPoint" />
          </mxGeometry>
        </mxCell>
        <mxCell id="b1Wx8SmgDYY8dKGS5oWz-24" value="" style="endArrow=none;html=1;rounded=0;exitX=1;exitY=1;exitDx=0;exitDy=0;entryX=0;entryY=0.5;entryDx=0;entryDy=0;" edge="1" parent="1" source="b1Wx8SmgDYY8dKGS5oWz-2" target="b1Wx8SmgDYY8dKGS5oWz-27">
          <mxGeometry relative="1" as="geometry">
            <mxPoint x="475" y="200" as="sourcePoint" />
            <mxPoint x="520" y="200" as="targetPoint" />
          </mxGeometry>
        </mxCell>
        <mxCell id="b1Wx8SmgDYY8dKGS5oWz-25" value="" style="ellipse;whiteSpace=wrap;html=1;aspect=fixed;" vertex="1" parent="1">
          <mxGeometry x="520" y="140" width="20" height="20" as="geometry" />
        </mxCell>
        <mxCell id="b1Wx8SmgDYY8dKGS5oWz-26" value="" style="ellipse;whiteSpace=wrap;html=1;aspect=fixed;" vertex="1" parent="1">
          <mxGeometry x="530" y="170" width="20" height="20" as="geometry" />
        </mxCell>
        <mxCell id="b1Wx8SmgDYY8dKGS5oWz-27" value="" style="ellipse;whiteSpace=wrap;html=1;aspect=fixed;" vertex="1" parent="1">
          <mxGeometry x="530" y="200" width="20" height="20" as="geometry" />
        </mxCell>
        <mxCell id="b1Wx8SmgDYY8dKGS5oWz-28" value="" style="endArrow=none;html=1;rounded=0;exitX=0.75;exitY=0;exitDx=0;exitDy=0;entryX=0;entryY=1;entryDx=0;entryDy=0;" edge="1" parent="1" source="b1Wx8SmgDYY8dKGS5oWz-2" target="b1Wx8SmgDYY8dKGS5oWz-29">
          <mxGeometry relative="1" as="geometry">
            <mxPoint x="475" y="170" as="sourcePoint" />
            <mxPoint x="480" y="100" as="targetPoint" />
          </mxGeometry>
        </mxCell>
        <mxCell id="b1Wx8SmgDYY8dKGS5oWz-29" value="" style="ellipse;whiteSpace=wrap;html=1;aspect=fixed;fillColor=#000000;" vertex="1" parent="1">
          <mxGeometry x="480" y="90" width="20" height="20" as="geometry" />
        </mxCell>
        <mxCell id="b1Wx8SmgDYY8dKGS5oWz-30" value="id" style="text;strokeColor=none;align=center;fillColor=none;html=1;verticalAlign=middle;whiteSpace=wrap;rounded=0;" vertex="1" parent="1">
          <mxGeometry x="480" y="80" width="60" height="30" as="geometry" />
        </mxCell>
        <mxCell id="b1Wx8SmgDYY8dKGS5oWz-31" value="nome" style="text;strokeColor=none;align=center;fillColor=none;html=1;verticalAlign=middle;whiteSpace=wrap;rounded=0;" vertex="1" parent="1">
          <mxGeometry x="500" y="110" width="60" height="30" as="geometry" />
        </mxCell>
        <mxCell id="b1Wx8SmgDYY8dKGS5oWz-32" value="tipo" style="text;strokeColor=none;align=center;fillColor=none;html=1;verticalAlign=middle;whiteSpace=wrap;rounded=0;" vertex="1" parent="1">
          <mxGeometry x="530" y="135" width="60" height="30" as="geometry" />
        </mxCell>
        <mxCell id="b1Wx8SmgDYY8dKGS5oWz-33" value="preco" style="text;strokeColor=none;align=center;fillColor=none;html=1;verticalAlign=middle;whiteSpace=wrap;rounded=0;" vertex="1" parent="1">
          <mxGeometry x="540" y="165" width="60" height="30" as="geometry" />
        </mxCell>
        <mxCell id="b1Wx8SmgDYY8dKGS5oWz-34" value="quantidadde" style="text;strokeColor=none;align=center;fillColor=none;html=1;verticalAlign=middle;whiteSpace=wrap;rounded=0;" vertex="1" parent="1">
          <mxGeometry x="560" y="195" width="60" height="30" as="geometry" />
        </mxCell>
        <mxCell id="b1Wx8SmgDYY8dKGS5oWz-35" value="Faz" style="shape=rhombus;perimeter=rhombusPerimeter;whiteSpace=wrap;html=1;align=center;" vertex="1" parent="1">
          <mxGeometry x="130" y="260" width="80" height="40" as="geometry" />
        </mxCell>
        <mxCell id="b1Wx8SmgDYY8dKGS5oWz-36" value="" style="edgeStyle=entityRelationEdgeStyle;fontSize=12;html=1;endArrow=ERoneToMany;rounded=0;exitX=0.5;exitY=1;exitDx=0;exitDy=0;entryX=0.5;entryY=0;entryDx=0;entryDy=0;" edge="1" parent="1" source="b1Wx8SmgDYY8dKGS5oWz-1" target="b1Wx8SmgDYY8dKGS5oWz-35">
          <mxGeometry width="100" height="100" relative="1" as="geometry">
            <mxPoint x="370" y="230" as="sourcePoint" />
            <mxPoint x="470" y="130" as="targetPoint" />
          </mxGeometry>
        </mxCell>
        <mxCell id="b1Wx8SmgDYY8dKGS5oWz-38" value="" style="edgeStyle=entityRelationEdgeStyle;fontSize=12;html=1;endArrow=ERoneToMany;rounded=0;exitX=1;exitY=0.5;exitDx=0;exitDy=0;entryX=0;entryY=0.5;entryDx=0;entryDy=0;" edge="1" parent="1" source="b1Wx8SmgDYY8dKGS5oWz-35" target="b1Wx8SmgDYY8dKGS5oWz-3">
          <mxGeometry width="100" height="100" relative="1" as="geometry">
            <mxPoint x="370" y="230" as="sourcePoint" />
            <mxPoint x="470" y="130" as="targetPoint" />
          </mxGeometry>
        </mxCell>
        <mxCell id="b1Wx8SmgDYY8dKGS5oWz-39" value="Tem" style="shape=rhombus;perimeter=rhombusPerimeter;whiteSpace=wrap;html=1;align=center;" vertex="1" parent="1">
          <mxGeometry x="460" y="260" width="80" height="40" as="geometry" />
        </mxCell>
        <mxCell id="b1Wx8SmgDYY8dKGS5oWz-40" value="" style="edgeStyle=entityRelationEdgeStyle;fontSize=12;html=1;endArrow=ERoneToMany;rounded=0;exitX=1;exitY=0.5;exitDx=0;exitDy=0;entryX=0;entryY=0.5;entryDx=0;entryDy=0;" edge="1" parent="1" source="b1Wx8SmgDYY8dKGS5oWz-3" target="b1Wx8SmgDYY8dKGS5oWz-39">
          <mxGeometry width="100" height="100" relative="1" as="geometry">
            <mxPoint x="370" y="230" as="sourcePoint" />
            <mxPoint x="470" y="130" as="targetPoint" />
          </mxGeometry>
        </mxCell>
        <mxCell id="b1Wx8SmgDYY8dKGS5oWz-41" value="" style="edgeStyle=entityRelationEdgeStyle;fontSize=12;html=1;endArrow=ERoneToMany;rounded=0;exitX=0.5;exitY=0;exitDx=0;exitDy=0;entryX=0.5;entryY=1;entryDx=0;entryDy=0;" edge="1" parent="1" source="b1Wx8SmgDYY8dKGS5oWz-39" target="b1Wx8SmgDYY8dKGS5oWz-2">
          <mxGeometry width="100" height="100" relative="1" as="geometry">
            <mxPoint x="410" y="310" as="sourcePoint" />
            <mxPoint x="470" y="290" as="targetPoint" />
          </mxGeometry>
        </mxCell>
        <mxCell id="b1Wx8SmgDYY8dKGS5oWz-42" value="1,1" style="text;strokeColor=none;align=center;fillColor=none;html=1;verticalAlign=middle;whiteSpace=wrap;rounded=0;" vertex="1" parent="1">
          <mxGeometry x="150" y="200" width="60" height="30" as="geometry" />
        </mxCell>
        <mxCell id="b1Wx8SmgDYY8dKGS5oWz-43" value="1,N" style="text;strokeColor=none;align=center;fillColor=none;html=1;verticalAlign=middle;whiteSpace=wrap;rounded=0;" vertex="1" parent="1">
          <mxGeometry x="250" y="270" width="60" height="30" as="geometry" />
        </mxCell>
        <mxCell id="b1Wx8SmgDYY8dKGS5oWz-44" value="1,N" style="text;strokeColor=none;align=center;fillColor=none;html=1;verticalAlign=middle;whiteSpace=wrap;rounded=0;" vertex="1" parent="1">
          <mxGeometry x="385" y="300" width="60" height="30" as="geometry" />
        </mxCell>
        <mxCell id="b1Wx8SmgDYY8dKGS5oWz-45" value="1,N" style="text;strokeColor=none;align=center;fillColor=none;html=1;verticalAlign=middle;whiteSpace=wrap;rounded=0;" vertex="1" parent="1">
          <mxGeometry x="400" y="200" width="60" height="30" as="geometry" />
        </mxCell>
      </root>
    </mxGraphModel>
  </diagram>
</mxfile>
